<?xml version="1.0" standalone="no"?>
<!DOCTYPE svg PUBLIC "-//W3C//DTD SVG 20010904//EN"
 "http://www.w3.org/TR/2001/REC-SVG-20010904/DTD/svg10.dtd">
<svg version="1.0" xmlns="http://www.w3.org/2000/svg"
 width="200.000000pt" height="200.000000pt" viewBox="0 0 200.000000 200.000000"
 preserveAspectRatio="xMidYMid meet">
<metadata>
Created by potrace 1.14, written by Peter Selinger 2001-2017
</metadata>
<g transform="translate(0.000000,200.000000) scale(0.100000,-0.100000)"
fill="#000000" stroke="none">
<path d="M470 1970 c-19 -5 -62 -11 -94 -14 -58 -5 -87 -18 -72 -33 4 -5 38
-8 74 -9 37 -1 124 -5 194 -9 116 -7 128 -6 134 9 4 11 0 25 -12 37 -16 15
-38 20 -104 23 -47 2 -101 0 -120 -4z"/>
<path d="M1057 1957 c-86 -23 -88 -23 -144 -6 -60 19 -93 13 -93 -17 0 -11 10
-14 38 -13 20 1 60 -1 87 -5 28 -4 104 -8 170 -10 94 -2 125 1 144 13 19 12
30 13 67 3 24 -7 54 -12 65 -12 28 0 119 31 119 40 0 4 -26 8 -57 9 -32 0 -64
3 -73 5 -8 3 -64 7 -125 10 -94 5 -123 2 -198 -17z"/>
<path d="M1592 1942 c-10 -27 23 -42 106 -46 45 -3 86 -8 92 -11 18 -11 100
-8 115 5 20 17 19 30 -3 30 -10 0 -28 8 -42 17 -32 22 -259 26 -268 5z"/>
<path d="M306 1726 c-21 -24 -45 -43 -53 -42 -26 2 -39 -29 -24 -57 14 -27 17
-97 6 -209 -6 -63 -4 -80 8 -93 16 -15 16 -93 2 -230 -3 -27 -4 -61 -3 -75 2
-29 1 -54 -6 -238 -2 -74 -7 -136 -9 -139 -3 -3 1 -23 9 -44 10 -31 11 -44 2
-58 -9 -14 -7 -28 6 -60 17 -45 15 -61 -11 -61 -14 0 -14 -2 1 -19 12 -13 16
-27 11 -43 -4 -16 -4 -19 3 -9 8 11 13 7 26 -17 22 -43 20 -52 -11 -52 -21 0
-24 -3 -15 -12 8 -8 18 -8 34 -1 17 8 33 6 63 -5 34 -13 103 -15 449 -14 254
1 414 -2 421 -8 6 -5 85 -11 176 -14 90 -2 169 -5 174 -6 6 -1 31 -2 58 -1 37
1 47 5 47 18 0 9 22 38 49 64 l49 47 0 164 c0 374 11 1075 17 1104 6 27 1 36
-37 75 -46 48 -74 64 -83 49 -3 -5 -16 -7 -28 -4 -22 3 -608 16 -634 13 -44
-5 -311 0 -377 8 -60 6 -80 5 -83 -4 -7 -17 -42 -16 -73 2 -14 8 -48 14 -76
15 -48 0 -53 -3 -88 -44z"/>
<path d="M72 1618 c-7 -7 -12 -22 -12 -35 0 -13 -7 -40 -16 -61 -30 -71 -34
-125 -18 -204 11 -48 14 -101 11 -155 -4 -61 -1 -87 10 -102 29 -42 34 -23 29
92 -2 61 -5 123 -5 137 -1 47 8 225 14 283 7 60 6 64 -13 45z"/>
<path d="M1921 1533 c0 -38 -2 -282 -4 -543 -5 -490 0 -551 32 -437 17 60 18
83 8 190 -6 67 -4 87 15 140 18 52 21 81 19 176 -1 78 -7 123 -17 143 -14 26
-14 34 1 73 17 44 15 133 -4 202 -4 15 -6 43 -4 61 4 35 -10 62 -33 62 -9 0
-13 -19 -13 -67z"/>
<path d="M66 914 c-3 -9 -6 -29 -6 -45 0 -16 -5 -37 -11 -47 -8 -12 -7 -25 1
-47 9 -23 13 -27 20 -15 12 24 23 170 12 170 -5 0 -13 -7 -16 -16z"/>
<path d="M64 726 c-3 -9 -4 -22 -1 -30 3 -8 -1 -22 -8 -33 -8 -10 -15 -35 -15
-56 0 -21 -7 -49 -16 -63 -14 -21 -16 -39 -9 -112 4 -48 8 -112 10 -142 1 -30
5 -83 10 -117 6 -52 10 -63 28 -68 12 -4 53 -20 91 -37 68 -31 70 -31 99 -14
27 15 32 15 46 2 13 -14 17 -14 31 -1 15 13 20 12 49 -9 28 -21 39 -23 99 -18
44 3 71 10 78 20 10 14 14 14 37 -1 21 -13 50 -17 135 -17 101 0 111 2 124 22
l14 21 23 -24 c20 -22 29 -24 99 -21 46 1 79 7 83 14 6 9 12 8 26 -4 16 -14
28 -16 80 -8 45 6 74 5 107 -5 24 -7 47 -11 50 -7 4 3 95 9 204 13 108 4 215
11 237 17 22 6 55 15 74 19 29 7 37 15 49 52 12 37 12 45 1 52 -24 15 -34 4
-31 -33 2 -21 -2 -39 -9 -44 -18 -11 -264 -15 -292 -5 -12 5 -22 15 -22 22 -1
26 -16 39 -46 39 -24 0 -29 -4 -29 -24 0 -33 -14 -36 -164 -40 -80 -2 -131 -7
-140 -15 -11 -9 -24 -10 -48 -3 -48 14 -52 14 -409 12 -238 -1 -333 1 -349 10
-18 10 -24 9 -31 -1 -6 -10 -11 -10 -25 2 -19 15 -26 17 -131 22 -40 2 -76 7
-80 11 -4 4 -9 44 -9 89 -1 45 -3 102 -3 127 -1 25 1 122 5 216 5 125 4 173
-5 178 -6 4 -14 0 -17 -8z"/>
<path d="M1890 210 c0 -5 5 -10 10 -10 6 0 10 5 10 10 0 6 -4 10 -10 10 -5 0
-10 -4 -10 -10z"/>
</g>
</svg>
